<svg width="161" height="68" viewBox="0 0 161 68" fill="none" xmlns="http://www.w3.org/2000/svg">
<rect x="1.50002" y="1.50002" width="158" height="65" rx="10.5" stroke="url(#paint0_linear_9_10)" stroke-width="3"/>
<path d="M51.5889 15.7188C51.5889 16.3516 51.4043 16.8701 51.0352 17.2744C50.6836 17.6787 50.2002 17.9512 49.585 18.0918C48.6006 18.3027 47.5898 18.417 46.5527 18.4346C45.5332 18.4346 44.5225 18.461 43.5205 18.5137V23.7344C43.5205 28.1641 43.6523 32.585 43.916 36.9971C44.1973 41.3916 44.6455 45.7949 45.2607 50.207C45.3135 50.4707 45.3662 50.7344 45.4189 50.9981C45.4893 51.2617 45.5244 51.5254 45.5244 51.7891C45.5244 52.211 45.4102 52.5186 45.1816 52.7119C44.9707 52.9053 44.6631 53.002 44.2588 53.002C43.9424 53.002 43.5469 52.958 43.0723 52.8701C42.6152 52.7998 42.2549 52.6856 41.9912 52.5274C41.6397 52.3164 41.4111 52.1055 41.3057 51.8945C41.2178 51.666 41.1475 51.3672 41.0947 50.9981C40.9014 49.75 40.7695 48.502 40.6992 47.2539C40.6289 46.0059 40.5498 44.7578 40.4619 43.5098C40.251 40.8379 40.0752 38.1748 39.9346 35.5205C39.7939 32.8662 39.7236 30.2031 39.7236 27.5313C39.7236 26.0723 39.7324 24.6221 39.75 23.1807C39.7676 21.7393 39.7764 20.2715 39.7764 18.7774C38.6865 18.8828 37.5879 18.9883 36.4805 19.0938C35.3906 19.1992 34.292 19.252 33.1846 19.252C32.9209 19.252 32.71 19.1904 32.5518 19.0674C32.376 18.9268 32.2881 18.7246 32.2881 18.461C32.2881 17.8457 32.4902 17.3711 32.8945 17.0371C33.2988 16.6856 33.7822 16.4395 34.3447 16.2988C35.2412 16.1055 36.1553 15.9824 37.0869 15.9297C38.0186 15.8594 38.9502 15.7715 39.8818 15.666C39.8818 15.4902 39.8906 15.3233 39.9082 15.1651C39.9258 14.9893 39.9609 14.8399 40.0137 14.7168C40.084 14.5762 40.1807 14.4619 40.3037 14.374C40.4268 14.2861 40.6025 14.2422 40.8311 14.2422C41.2529 14.2422 41.6836 14.3389 42.1231 14.5322C42.5625 14.7256 42.9053 14.9981 43.1514 15.3496L47.5283 14.875C47.9502 14.8223 48.3721 14.7695 48.7939 14.7168C49.2158 14.6465 49.6377 14.6113 50.0596 14.6113C50.2529 14.6113 50.4375 14.6201 50.6133 14.6377C50.8066 14.6553 50.9736 14.708 51.1143 14.7959C51.2549 14.8662 51.3691 14.9805 51.457 15.1387C51.5449 15.2793 51.5889 15.4727 51.5889 15.7188ZM70.4941 37.4981C70.4941 37.8672 70.3623 38.2539 70.0986 38.6582C69.835 39.0625 69.5449 39.3613 69.2285 39.5547C69.1406 39.6074 68.9912 39.6602 68.7803 39.7129C68.5693 39.7656 68.3408 39.8184 68.0947 39.8711C67.8662 39.9063 67.6377 39.9502 67.4092 40.0029C67.1982 40.0381 67.0313 40.0645 66.9082 40.082L67.541 43.9844C67.7344 45.1973 67.875 46.419 67.9629 47.6494C68.0684 48.8623 68.2969 50.0664 68.6484 51.2617C68.6836 51.3672 68.7188 51.4639 68.7539 51.5518C68.7891 51.6397 68.8066 51.7539 68.8066 51.8945C68.8066 52.1231 68.7363 52.2988 68.5957 52.4219C68.4727 52.5449 68.3145 52.6328 68.1211 52.6856C67.9453 52.7559 67.752 52.7998 67.541 52.8174C67.3301 52.835 67.1367 52.8438 66.9609 52.8438H66.5918C66.0469 52.8438 65.625 52.7998 65.3262 52.7119C65.0449 52.624 64.8252 52.4746 64.667 52.2637C64.5088 52.0527 64.4033 51.7891 64.3506 51.4727C64.2979 51.1387 64.2363 50.7344 64.166 50.2598C63.7441 47.043 63.2695 43.8262 62.7422 40.6094C61.6523 40.75 60.5537 40.8819 59.4463 41.0049C58.3564 41.1279 57.2578 41.2422 56.1504 41.3477L55.3066 46.5156C55.2715 46.832 55.2188 47.2627 55.1484 47.8076C55.0957 48.3526 55.0254 48.9151 54.9375 49.4951C54.8672 50.0576 54.7793 50.585 54.6738 51.0772C54.5859 51.5694 54.4805 51.9297 54.3574 52.1582C54.252 52.3692 54.1553 52.5186 54.0674 52.6065C53.9795 52.6944 53.8125 52.7383 53.5664 52.7383C53.25 52.7383 52.9336 52.6768 52.6172 52.5537C52.3184 52.4483 52.0459 52.2901 51.7998 52.0791C51.5713 51.8858 51.3867 51.6485 51.2461 51.3672C51.1055 51.086 51.0352 50.7695 51.0352 50.418C51.0352 50.0664 51.0703 49.7149 51.1406 49.3633C51.2285 49.0117 51.2988 48.6602 51.3516 48.3086C51.5449 47.1485 51.7207 45.9971 51.8789 44.8545C52.0371 43.6944 52.2129 42.543 52.4063 41.4004C52.2832 41.3828 52.1426 41.3565 51.9844 41.3213C51.8262 41.2686 51.668 41.207 51.5098 41.1367C51.3691 41.0664 51.2461 40.9785 51.1406 40.8731C51.0352 40.7676 50.9824 40.6445 50.9824 40.5039C50.9824 40.3281 51.0439 40.1699 51.167 40.0293C51.3076 39.8711 51.4658 39.7305 51.6416 39.6074C51.835 39.4668 52.0283 39.3526 52.2217 39.2647C52.415 39.1592 52.582 39.0801 52.7227 39.0274C53.0918 36.5664 53.4434 34.1143 53.7773 31.6709C54.1113 29.2276 54.4102 26.7578 54.6738 24.2617C54.7441 23.5938 54.8057 22.917 54.8584 22.2315C54.9111 21.5459 54.9639 20.8604 55.0166 20.1748C55.0869 19.4893 55.166 18.8125 55.2539 18.1445C55.3594 17.4766 55.5 16.8086 55.6758 16.1406C55.834 15.5078 56.0977 14.9981 56.4668 14.6113C56.8359 14.2246 57.3809 14.0313 58.1016 14.0313C58.3125 14.0313 58.5147 14.0488 58.708 14.084C58.9189 14.1192 59.1035 14.1895 59.2617 14.2949C59.7188 14.5235 60.1934 15.1475 60.6856 16.167C61.1777 17.1865 61.6699 18.4258 62.1621 19.8848C62.6543 21.3262 63.1201 22.8906 63.5596 24.5781C64.0166 26.2656 64.4297 27.9004 64.7988 29.4824C65.168 31.0645 65.4844 32.4971 65.7481 33.7803C66.0117 35.0459 66.2051 35.9863 66.3281 36.6016C66.6973 36.5488 67.0664 36.5049 67.4356 36.4697C67.8047 36.417 68.1738 36.3906 68.543 36.3906C68.7188 36.3906 68.9209 36.3994 69.1494 36.417C69.3779 36.4346 69.5889 36.4873 69.7822 36.5752C69.9932 36.6455 70.1602 36.7598 70.2832 36.918C70.4238 37.0586 70.4941 37.252 70.4941 37.4981ZM62.2148 37.2871C61.7578 34.791 61.2568 32.3213 60.7119 29.8779C60.1846 27.417 59.5606 24.9649 58.8398 22.5215C58.5234 25.1758 58.1807 27.8125 57.8115 30.4317C57.4424 33.0508 57.0469 35.6699 56.625 38.2891C57.5742 38.1485 58.5059 37.999 59.4199 37.8408C60.3516 37.6651 61.2832 37.4805 62.2148 37.2871ZM87.3955 43.668C87.3955 44.9688 87.1846 46.1992 86.7627 47.3594C86.3408 48.5195 85.7344 49.5391 84.9434 50.418C84.1699 51.2793 83.2295 51.9649 82.1221 52.4746C81.0147 53.002 79.7842 53.2656 78.4307 53.2656C77.2354 53.2656 76.1279 53.0723 75.1084 52.6856C74.1064 52.3164 73.2363 51.7891 72.4981 51.1035C71.7598 50.418 71.1797 49.583 70.7578 48.5986C70.3535 47.6143 70.1514 46.5156 70.1514 45.3027C70.1514 45.0567 70.1602 44.749 70.1777 44.3799C70.1953 44.0108 70.2481 43.6592 70.3359 43.3252C70.4414 42.9736 70.582 42.6836 70.7578 42.4551C70.9512 42.209 71.2236 42.086 71.5752 42.086C71.8564 42.086 72.1641 42.1475 72.4981 42.2705C72.8496 42.376 73.1748 42.5254 73.4736 42.7188C73.7725 42.9121 74.0186 43.1494 74.2119 43.4307C74.4229 43.6944 74.5283 43.9844 74.5283 44.3008V45.8301C74.5283 47.043 74.8535 48.0361 75.5039 48.8096C76.1719 49.5654 77.1299 49.9434 78.3779 49.9434C79.2568 49.9434 80.0127 49.7412 80.6455 49.3369C81.2783 48.9326 81.7881 48.4141 82.1748 47.7813C82.5791 47.1485 82.8691 46.4453 83.0449 45.6719C83.2383 44.8809 83.335 44.1074 83.335 43.3516C83.335 41.875 83.0273 40.4424 82.4121 39.0537C81.8145 37.6651 81.0586 36.3115 80.1445 34.9932C79.2305 33.6572 78.2373 32.3477 77.165 31.0645C76.0928 29.7813 75.0996 28.5069 74.1856 27.2412C73.2715 25.9756 72.5068 24.71 71.8916 23.4444C71.2939 22.1787 70.9951 20.8867 70.9951 19.5684C70.9951 18.4961 71.2061 17.5733 71.6279 16.7998C72.0674 16.0088 72.6387 15.3672 73.3418 14.875C74.0625 14.3652 74.8711 13.9961 75.7676 13.7676C76.6816 13.5215 77.6221 13.3985 78.5889 13.3985C79.7666 13.3985 80.8213 13.5654 81.7529 13.8994C82.6846 14.2334 83.4756 14.7168 84.126 15.3496C84.7764 15.9824 85.2686 16.7647 85.6025 17.6963C85.9541 18.6104 86.1299 19.6563 86.1299 20.834C86.1299 21.0098 86.1211 21.2295 86.1035 21.4932C86.0859 21.7569 86.042 22.0205 85.9717 22.2842C85.9014 22.5303 85.7959 22.75 85.6553 22.9434C85.5147 23.1192 85.3213 23.207 85.0752 23.207C84.7236 23.207 84.3721 23.1192 84.0205 22.9434C83.7217 22.7852 83.4756 22.6358 83.2822 22.4951C83.1064 22.3369 82.9658 22.1699 82.8604 21.9942C82.7549 21.8008 82.6758 21.5899 82.6231 21.3613C82.5703 21.1328 82.5264 20.8516 82.4912 20.5176C82.4033 19.8848 82.2891 19.3135 82.1484 18.8037C82.0078 18.294 81.7969 17.8633 81.5156 17.5117C81.2344 17.1602 80.8652 16.8877 80.4082 16.6944C79.9512 16.501 79.3623 16.4043 78.6416 16.4043C78.1318 16.4043 77.6397 16.457 77.165 16.5625C76.708 16.668 76.3037 16.8438 75.9522 17.0899C75.6182 17.336 75.3457 17.6611 75.1348 18.0654C74.9414 18.4522 74.8447 18.9356 74.8447 19.5156C74.8447 20.3242 75.0205 21.1504 75.3721 21.9942C75.7412 22.8379 76.2158 23.6992 76.7959 24.5781C77.3936 25.457 78.0615 26.3623 78.7998 27.294C79.5557 28.208 80.3291 29.1572 81.1201 30.1416C81.9111 31.126 82.6758 32.1455 83.4141 33.2002C84.1699 34.2373 84.8379 35.3184 85.418 36.4434C86.0156 37.5684 86.4902 38.7373 86.8418 39.9502C87.2109 41.1455 87.3955 42.3848 87.3955 43.668ZM108.753 51.5781C108.753 51.8242 108.639 52.0352 108.41 52.211C108.182 52.3867 107.909 52.5274 107.593 52.6328C107.276 52.7383 106.951 52.8174 106.617 52.8701C106.301 52.9229 106.046 52.9492 105.853 52.9492C105.8 52.9492 105.756 52.958 105.721 52.9756C105.686 52.9932 105.642 52.9844 105.589 52.9492C105.237 52.8789 104.93 52.7559 104.666 52.5801C104.402 52.4219 104.165 52.2285 103.954 52C103.743 51.7891 103.541 51.5518 103.348 51.2881C103.154 51.0244 102.952 50.752 102.741 50.4707C101.335 48.6953 100.008 46.876 98.7598 45.0127C97.5293 43.1319 96.4131 41.1543 95.4111 39.0801L95.0947 39.4492V49.627C95.0947 49.8203 95.0859 50.0401 95.0684 50.2861C95.0508 50.5147 95.0068 50.7344 94.9365 50.9453C94.8662 51.1563 94.7607 51.332 94.6201 51.4727C94.4795 51.6133 94.2861 51.6836 94.04 51.6836C93.4775 51.6836 93.0117 51.5957 92.6426 51.4199C92.291 51.2442 92.0098 51.0069 91.7988 50.708C91.6055 50.3916 91.4736 50.0225 91.4033 49.6006C91.333 49.1787 91.2979 48.7129 91.2979 48.2031C91.2979 46.5508 91.2803 44.9072 91.2451 43.2725C91.21 41.6377 91.1924 39.9942 91.1924 38.3418C91.1924 37.6211 91.2188 36.918 91.2715 36.2324C91.3242 35.5469 91.3506 34.8438 91.3506 34.1231C91.3506 31.6094 91.2539 29.1133 91.0606 26.6348C90.8672 24.1387 90.665 21.6426 90.4541 19.1465C90.4014 18.5664 90.3398 17.9863 90.2695 17.4063C90.2168 16.8262 90.1904 16.2461 90.1904 15.666C90.1904 15.2442 90.3311 14.9629 90.6123 14.8223C90.8936 14.6817 91.1924 14.6113 91.5088 14.6113C92.4932 14.6113 93.2666 14.8135 93.8291 15.2178C94.3916 15.6221 94.6729 16.3516 94.6729 17.4063C94.6729 19.0059 94.7256 20.5703 94.8311 22.0996C94.9189 24.0156 94.9717 25.9141 94.9893 27.7949C95.0244 29.6758 95.0596 31.5742 95.0947 33.4902C96.9932 31.1172 98.4873 28.5684 99.5772 25.8438C100.667 23.1016 101.493 20.2363 102.056 17.2481C102.073 17.0723 102.1 16.8526 102.135 16.5889C102.188 16.3252 102.249 16.0703 102.319 15.8242C102.407 15.5606 102.521 15.3408 102.662 15.1651C102.82 14.9717 103.022 14.875 103.269 14.875C103.55 14.875 103.84 14.9277 104.139 15.0332C104.438 15.1211 104.701 15.2529 104.93 15.4287C105.176 15.6045 105.369 15.8154 105.51 16.0615C105.668 16.3076 105.747 16.5801 105.747 16.8789C105.747 17.6524 105.65 18.3994 105.457 19.1201C105.281 19.8408 105.097 20.5703 104.903 21.3086C104.534 22.8027 104.139 24.1826 103.717 25.4483C103.313 26.7139 102.838 27.9356 102.293 29.1133C101.766 30.2735 101.15 31.4248 100.447 32.5674C99.7441 33.6924 98.9092 34.8613 97.9424 36.0742L99.0498 38.2891C99.9814 40.0645 101.019 41.7959 102.161 43.4834C103.304 45.1533 104.552 46.7442 105.905 48.2559C106.362 48.7656 106.828 49.2402 107.303 49.6797C107.795 50.1016 108.226 50.5938 108.595 51.1563C108.7 51.2617 108.753 51.4024 108.753 51.5781ZM125.47 43.668C125.47 44.9688 125.259 46.1992 124.837 47.3594C124.415 48.5195 123.809 49.5391 123.018 50.418C122.244 51.2793 121.304 51.9649 120.196 52.4746C119.089 53.002 117.858 53.2656 116.505 53.2656C115.31 53.2656 114.202 53.0723 113.183 52.6856C112.181 52.3164 111.311 51.7891 110.572 51.1035C109.834 50.418 109.254 49.583 108.832 48.5986C108.428 47.6143 108.226 46.5156 108.226 45.3027C108.226 45.0567 108.234 44.749 108.252 44.3799C108.27 44.0108 108.322 43.6592 108.41 43.3252C108.516 42.9736 108.656 42.6836 108.832 42.4551C109.025 42.209 109.298 42.086 109.649 42.086C109.931 42.086 110.238 42.1475 110.572 42.2705C110.924 42.376 111.249 42.5254 111.548 42.7188C111.847 42.9121 112.093 43.1494 112.286 43.4307C112.497 43.6944 112.603 43.9844 112.603 44.3008V45.8301C112.603 47.043 112.928 48.0361 113.578 48.8096C114.246 49.5654 115.204 49.9434 116.452 49.9434C117.331 49.9434 118.087 49.7412 118.72 49.3369C119.353 48.9326 119.862 48.4141 120.249 47.7813C120.653 47.1485 120.943 46.4453 121.119 45.6719C121.313 44.8809 121.409 44.1074 121.409 43.3516C121.409 41.875 121.102 40.4424 120.486 39.0537C119.889 37.6651 119.133 36.3115 118.219 34.9932C117.305 33.6572 116.312 32.3477 115.239 31.0645C114.167 29.7813 113.174 28.5069 112.26 27.2412C111.346 25.9756 110.581 24.71 109.966 23.4444C109.368 22.1787 109.069 20.8867 109.069 19.5684C109.069 18.4961 109.28 17.5733 109.702 16.7998C110.142 16.0088 110.713 15.3672 111.416 14.875C112.137 14.3652 112.945 13.9961 113.842 13.7676C114.756 13.5215 115.696 13.3985 116.663 13.3985C117.841 13.3985 118.896 13.5654 119.827 13.8994C120.759 14.2334 121.55 14.7168 122.2 15.3496C122.851 15.9824 123.343 16.7647 123.677 17.6963C124.028 18.6104 124.204 19.6563 124.204 20.834C124.204 21.0098 124.195 21.2295 124.178 21.4932C124.16 21.7569 124.116 22.0205 124.046 22.2842C123.976 22.5303 123.87 22.75 123.729 22.9434C123.589 23.1192 123.396 23.207 123.149 23.207C122.798 23.207 122.446 23.1192 122.095 22.9434C121.796 22.7852 121.55 22.6358 121.356 22.4951C121.181 22.3369 121.04 22.1699 120.935 21.9942C120.829 21.8008 120.75 21.5899 120.697 21.3613C120.645 21.1328 120.601 20.8516 120.565 20.5176C120.478 19.8848 120.363 19.3135 120.223 18.8037C120.082 18.294 119.871 17.8633 119.59 17.5117C119.309 17.1602 118.939 16.8877 118.482 16.6944C118.025 16.501 117.437 16.4043 116.716 16.4043C116.206 16.4043 115.714 16.457 115.239 16.5625C114.782 16.668 114.378 16.8438 114.026 17.0899C113.692 17.336 113.42 17.6611 113.209 18.0654C113.016 18.4522 112.919 18.9356 112.919 19.5156C112.919 20.3242 113.095 21.1504 113.446 21.9942C113.815 22.8379 114.29 23.6992 114.87 24.5781C115.468 25.457 116.136 26.3623 116.874 27.294C117.63 28.208 118.403 29.1572 119.194 30.1416C119.985 31.126 120.75 32.1455 121.488 33.2002C122.244 34.2373 122.912 35.3184 123.492 36.4434C124.09 37.5684 124.564 38.7373 124.916 39.9502C125.285 41.1455 125.47 42.3848 125.47 43.668Z" fill="url(#paint1_linear_9_10)"/>
<defs>
<linearGradient id="paint0_linear_9_10" x1="161" y1="3.722e-06" x2="-2.49999" y2="63.5" gradientUnits="userSpaceOnUse">
<stop stop-color="#6232EC"/>
<stop offset="1" stop-color="white"/>
</linearGradient>
<linearGradient id="paint1_linear_9_10" x1="33" y1="14" x2="127" y2="53" gradientUnits="userSpaceOnUse">
<stop stop-color="white"/>
<stop offset="1" stop-color="white"/>
</linearGradient>
</defs>
</svg>
