<svg xmlns="http://www.w3.org/2000/svg" xmlns:xlink="http://www.w3.org/1999/xlink" class="wrapSVG">
  <defs>


    <symbol id="icon-tasks" viewBox="0 0 24 24" fill="">
      <g clip-path="url(#clip0_15_81)">
      <path d="M14.76 19.2558L12.9795 17.4753L19.9817 10.4731L21.7622 12.2536L14.76 19.2558Z" fill=""/>
      <path d="M22.0345 11.9813L20.254 10.2008L21.774 8.6808V8.68062C21.9179 8.53688 22.1512 8.53688 22.2951 8.68062L23.5545 9.94001V9.94019C23.6984 10.0839 23.6984 10.3174 23.5545 10.4613L22.0345 11.9813Z" fill=""/>
      <path d="M11.4998 20.7356L12.7111 17.7439L14.4916 19.5244L11.4998 20.7356Z" fill=""/>
      <mask id="mask0_15_81" style="mask-type:luminance" maskUnits="userSpaceOnUse" x="6" y="0" width="6" height="3">
      <path d="M6 0.191711H11.7188V2.71856H6V0.191711Z" fill="black"/>
      </mask>
      <g mask="url(#mask0_15_81)">
      <path d="M6.58688 2.71735H11.1467C11.4472 2.71698 11.6907 2.47345 11.6911 2.1728V0.191956H6.04219V2.1728C6.04256 2.47346 6.28609 2.71697 6.58674 2.71735H6.58688Z" fill=""/>
      </g>
      <mask id="mask1_15_81" style="mask-type:luminance" maskUnits="userSpaceOnUse" x="0" y="0" width="18" height="24">
      <path d="M0.328125 0.890625H17.4375V23.8078H0.328125V0.890625Z" fill="black"/>
      </mask>
      <g mask="url(#mask1_15_81)">
      <path d="M16.3078 0.895315H12.8989V2.17285C12.8715 2.61761 12.6742 3.03492 12.3483 3.33886C12.0224 3.64263 11.5923 3.81 11.1466 3.80633H6.45488C6.02183 3.8056 5.60672 3.6333 5.30077 3.32713C4.99462 3.02098 4.8225 2.60586 4.82194 2.17283V0.895301H1.42589C1.13713 0.895301 0.860298 1.00992 0.655923 1.21427C0.451759 1.41844 0.336952 1.69549 0.336952 1.98424V22.7189C0.336952 23.0077 0.451759 23.2845 0.65574 23.4889C0.859904 23.6931 1.13677 23.8079 1.42552 23.8079H16.3074C16.5962 23.8079 16.8732 23.6932 17.0774 23.4889C17.2815 23.2847 17.3963 23.0077 17.3963 22.7189V17.3892L14.7981 19.987L10.5125 21.7219L11.3212 19.724L11.606 19.0207L12.2166 17.5121L12.8745 16.8088L17.3957 12.2876L17.3961 1.98396C17.3961 1.6952 17.2813 1.41818 17.0771 1.21399C16.873 1.00983 16.5961 0.89502 16.3073 0.89502L16.3078 0.895315ZM9.96703 19.7245H2.94563L2.94581 19.0212H9.96721L9.96703 19.7245ZM9.96703 17.5126H2.94563L2.94581 16.8093H9.96721L9.96703 17.5126ZM11.4189 15.3007H2.94577V14.5977H11.4189V15.301V15.3007ZM13.6535 13.0887H2.94586V12.3856H13.6535V13.0889V13.0887ZM14.5383 10.8768H2.94609V10.1737H14.5387V10.877L14.5383 10.8768ZM14.5383 8.66485H2.94609V7.96172H14.5387V8.66503L14.5383 8.66485ZM14.5383 6.45291L2.94609 6.45309V5.74997H14.5387V6.45309L14.5383 6.45291Z" fill=""/>
      </g>
      </g>
      <defs>
      <clipPath id="clip0_15_81">
      <rect width="24" height="24" fill="black"/>
      </clipPath>
      </defs>
    </symbol> 

    <symbol id="icon-users" viewBox="0 0 24 24" fill="">
      <mask id="mask0_14_39" style="mask-type:luminance" maskUnits="userSpaceOnUse" x="2" y="12" width="20" height="12">
      <path d="M2.15625 12H21.8438V23.8078H2.15625V12Z" fill=""/>
      </mask>
      <g mask="url(#mask0_14_39)">
      <path d="M2.65172 23.8078H21.3478C21.4784 23.8078 21.6034 23.756 21.6957 23.6637C21.788 23.5714 21.8398 23.4464 21.8398 23.3158V19.3797C21.8376 17.4233 21.0594 15.5473 19.6759 14.164C18.2923 12.7804 16.4164 12.0022 14.4601 12H9.5401C7.58344 12.0022 5.70751 12.7804 4.32385 14.164C2.94029 15.5475 2.16212 17.4234 2.15991 19.3797V23.3158C2.15991 23.4464 2.21173 23.5714 2.30402 23.6637C2.3963 23.756 2.52136 23.8078 2.65192 23.8078H2.65172ZM3.14372 19.3798C3.14573 17.684 3.82013 16.0584 5.01928 14.8592C6.21825 13.6603 7.84406 12.9857 9.53981 12.9838H14.4598C16.1554 12.9857 17.7811 13.6603 18.9803 14.8592C20.1793 16.0584 20.8539 17.684 20.8557 19.3798V22.8238H3.14353L3.14372 19.3798Z" fill=""/>
      </g>
      <mask id="mask1_14_39" style="mask-type:luminance" maskUnits="userSpaceOnUse" x="7" y="0" width="10" height="12">
      <path d="M7.07812 0.191711H16.9219V11.0625H7.07812V0.191711Z" fill=""/>
      </mask>
      <g mask="url(#mask1_14_39)">
      <path d="M12 11.0161C14.7129 11.0161 16.92 8.5881 16.92 5.6039C16.9198 2.61984 14.7129 0.191711 12 0.191711C9.28717 0.191711 7.08002 2.6197 7.08002 5.6039C7.08002 8.58777 9.28717 11.0161 12 11.0161ZM12 1.17609C14.1702 1.17609 15.9361 3.16279 15.9361 5.60413C15.9361 8.04548 14.1702 10.0322 12 10.0322C9.82984 10.0322 8.06397 8.04548 8.06397 5.60413C8.06397 3.16279 9.82966 1.17609 12 1.17609Z" fill=""/>
      </g>
    </symbol> 
    
  </defs>
</svg>